<svg xmlns="http://www.w3.org/2000/svg" width="640" height="360" viewBox="0 0 640 360">
  <rect fill="#4F46E5" width="640" height="360"/>
  <g fill="#FFFFFF">
    <!-- Header -->
    <rect x="20" y="20" width="600" height="50" opacity="0.2" rx="5" />
    <circle cx="45" cy="45" r="15" opacity="0.5" />
    <rect x="70" y="40" width="100" height="10" opacity="0.5" rx="2" />
    <rect x="490" y="40" width="30" height="10" opacity="0.5" rx="2" />
    <rect x="530" y="40" width="70" height="10" opacity="0.5" rx="2" />
    
    <!-- Sidebar -->
    <rect x="20" y="90" width="150" height="250" opacity="0.2" rx="5" />
    <rect x="40" y="110" width="110" height="10" opacity="0.5" rx="2" />
    <rect x="40" y="140" width="110" height="10" opacity="0.5" rx="2" />
    <rect x="40" y="170" width="110" height="10" opacity="0.5" rx="2" />
    <rect x="40" y="200" width="110" height="10" opacity="0.5" rx="2" />
    <rect x="40" y="230" width="110" height="10" opacity="0.5" rx="2" />
    <rect x="40" y="260" width="110" height="10" opacity="0.5" rx="2" />
    <rect x="40" y="290" width="110" height="10" opacity="0.5" rx="2" />
    
    <!-- Main Content -->
    <rect x="190" y="90" width="430" height="80" opacity="0.2" rx="5" />
    <rect x="210" y="110" width="180" height="15" opacity="0.5" rx="2" />
    <rect x="210" y="135" width="120" height="10" opacity="0.5" rx="2" />
    <rect x="500" y="110" width="100" height="40" opacity="0.3" rx="5" />
    
    <!-- Charts -->
    <rect x="190" y="190" width="210" height="150" opacity="0.2" rx="5" />
    <rect x="210" y="210" width="100" height="15" opacity="0.5" rx="2" />
    <path d="M210,300 Q250,250 290,290 Q310,310 330,280 Q350,260 380,310" stroke="white" stroke-width="3" fill="none" opacity="0.5" />
    
    <rect x="410" y="190" width="210" height="150" opacity="0.2" rx="5" />
    <rect x="430" y="210" width="100" height="15" opacity="0.5" rx="2" />
    <circle cx="515" cy="265" r="45" opacity="0.3" />
    <path d="M515,265 L515,220 A45,45 0 0,1 557,278 Z" opacity="0.5" />
  </g>
  <text fill="#FFFFFF" font-family="sans-serif" font-size="30" font-weight="bold" text-anchor="middle" x="320" y="180">Dashboard Preview</text>
</svg> 